<svg xmlns="http://www.w3.org/2000/svg" viewBox="0 0 97.94 91.34" fill="gray" xmlns:v="https://vecta.io/nano"><path d="M0 69.47l.51 16.38a5.07 5.07 0 0 0 6.33 4.82l1.9-.41.95-.16c-.93.15.11 0 .34 0l4.09-.25 8.27.09 17 .34 34.23.7 19.24.39a5.09 5.09 0 0 0 5-5 104.51 104.51 0 0 0-.56-15.92c-.29-2.59-2.09-5.13-5-5-2.46.11-5.31 2.22-5 5a104.51 104.51 0 0 1 .56 15.92l5-5-69-1.4c-6.56-.16-13.21-.5-19.68 1.03l6.33 4.82L10 69.47a5.07 5.07 0 0 0-5-5 5.08 5.08 0 0 0-5 5zM41.36 5c1.15 17.42 2.27 35 0 52.35-.34 2.6 2.54 5.11 5 5 3-.14 4.64-2.21 5-5C53.63 40 52.51 22.42 51.36 5c-.17-2.6-2.18-5.12-5-5-2.56.12-5.18 2.21-5 5z"/><path d="M64.16 40.57l-10.49 9.6-5.06 4.64a8.3 8.3 0 0 0-1.38 1.26c1.32-2 2-.65 3.24-.63-.38 0-1.09-.59-1.41-.79l-1.15-.79c-.38-.26-.22-.16.21.17l-.61-.51-1.19-1.09-1.93-2.08-.79-.93-.51-.64c.37.47.38.49 0 0l-1.7-2.31-8.05-11.37c-1.51-2.13-4.43-3.35-6.84-1.8-2.11 1.37-3.41 4.56-1.79 6.84l7.1 10a73.69 73.69 0 0 0 6.87 8.77c2.69 2.77 6.78 6.35 10.88 6.26 2.9-.06 4.85-2.15 6.84-4l4.52-4.14 10.31-9.44a5 5 0 0 0 0-7.07 5.11 5.11 0 0 0-7.07 0z"/></svg>