<svg xmlns="http://www.w3.org/2000/svg" viewBox="0 0 103.62 94.62" fill="gray" xmlns:v="https://vecta.io/nano"><path d="M13.24 41.64l-1 32.7-.24 8.24c-.1 3.18-.19 6.41 2.15 8.9 3.65 3.91 9.93 3 14.75 3l32.49.07h8.18c2.8 0 5.79.3 8.55-.24 3.85-.75 5.6-4.09 6-7.66.3-2.53.49-5.07.74-7.6q1.73-18.23 3.46-36.44c.25-2.61-2.48-5.11-5-5a5.14 5.14 0 0 0-5 5q-1.43 15-2.86 30L74.81 80l-.35 3.69c0 .58-.11 1.15-.16 1.73a5.61 5.61 0 0 0-.09.84c-.07-.06.09-1.18 0-.09-.06.51.15-.33.19-.4a3.68 3.68 0 0 1 1.6-1.23c-.66.34-.06-.4.26 0a2.56 2.56 0 0 0-.55 0h-3.9-7.67l-30-.07H23h-1.45a3.87 3.87 0 0 0-.48 0c-.58 0 1.05.29.21 0l-.6-.18s.94.45.5.19.74.7.29.25.32.42.31.41c.49.85.19.55.12.17.2 1.11.05.42.07.15v-1.8l.23-7.73 1-34.2a5 5 0 0 0-5-5 5.1 5.1 0 0 0-5 5z"/><path d="M9.3 59.6q3.72-6.08 8-11.77l.53-.7c-.12.15-.57.72 0 0l.95-1.19q1.14-1.44 2.34-2.85l4.56-5.12a119.5 119.5 0 0 1 9.71-9.25c3.18-2.72 6.52-5.15 9.61-7.88a43.55 43.55 0 0 0 8.92-10.5c.26-.43.55-.86.79-1.3s-.21.26-.25.3c.76-.83-1.13.54-1.18.56 1.56-.6-3 .22-3.18-.78 0 .17.46.31.49.51 0 0-.66-1-.12-.12.18.3.38.59.57.88 1.3 2 2.64 3.95 4 5.9a194 194 0 0 0 18 22 169.46 169.46 0 0 0 23.11 20.2c2.13 1.54 5.67.43 6.84-1.79a5.12 5.12 0 0 0-1.79-6.84l-2.61-1.94-.65-.49c.8.6.21.16 0 0l-1.61-1.27C94.64 44.81 93 43.4 91.3 42q-5.22-4.55-10-9.52-4.78-4.97-9.47-10.58l-2.2-2.7-1.08-1.37c-.59-.75-.14-.18 0 0a31.81 31.81 0 0 0-.8-1q-2.13-2.82-4.17-5.7l-4.26-6.35c-1.9-2.88-4.75-5.6-8.55-4.55-3.09.86-4.44 3.46-6 6-.29.47-.6.94-.93 1.39l-.48.67c.1-.15.62-.76 0 0-.72.88-1.47 1.73-2.26 2.56a100.82 100.82 0 0 1-9.81 8.42 119.64 119.64 0 0 0-10.14 9.08A142.71 142.71 0 0 0 .67 54.55a5 5 0 0 0 1.79 6.84A5.1 5.1 0 0 0 9.3 59.6z"/></svg>