<svg xmlns="http://www.w3.org/2000/svg" viewBox="0 0 91.15 84.5" fill="gray" xmlns:v="https://vecta.io/nano"><path d="M70.29 65a78.77 78.77 0 0 1-7.55 4.51l-3.94 1.88c.87-.39.17-.07 0 0l-1.21.47q-1 .39-2 .72l-4.16 1.16-2.1.43-.85.14c-.59.08-.57.08 0 0l-.65.08a38.27 38.27 0 0 1-7.83-.07c-.81-.09 1.23.21 0 0l-.77-.14-1.9-.42c-1.34-.33-2.61-.79-3.9-1.24-.75-.26 1.08.5-.07 0l-.7-.33-1.73-.9-1.67-1-.65-.45-.61-.52.24.18a37 37 0 0 1-2.75-2.56l-1.26-1.45c-.6-.7 0 0 .07.1a9.46 9.46 0 0 1-.79-1.09 34.47 34.47 0 0 1-1.9-3.14l-.88-1.74-.41-.89c-.54-1.19.17.51-.19-.44a82.4 82.4 0 0 1-4.27-17.52c-.37-2.6-3.8-4.26-6.15-3.5-2.84.92-3.89 3.37-3.49 6.15C7.86 55 11.06 67.57 20.09 75.67c9.62 8.63 23.18 10.6 35.42 7.33a66.85 66.85 0 0 0 19.82-9.4c2.17-1.45 3.32-4.47 1.8-6.84-1.4-2.16-4.52-3.35-6.84-1.79z"/><path d="M9.75 57.65q1.82-9.28 4-18.51l-8.38 2.21A58.43 58.43 0 0 0 27.9 55.6a5 5 0 0 0 6.15-3.5 5.13 5.13 0 0 0-3.5-6.1l-1.52-.55a9.63 9.63 0 0 0-.91-.35c.63.25-.76-.34-.88-.4l-1.47-.7a55.74 55.74 0 0 1-4.94-2.78l-2.35-1.6-1.3-1c.68.53.05 0-.26-.22a56.22 56.22 0 0 1-4.48-4.11C9.88 31.65 5 32.81 4.09 36.48Q1.92 45.71.11 55c-.5 2.56.72 5.52 3.49 6.15 2.47.57 5.62-.74 6.15-3.49zm9.3-36.89c-.88.69.26-.19.37-.27l.69-.51 1.77-1.26 3.63-2.35 3.75-2.09 1.92-.94L32 13c1.07-.49-.63.23.38-.16a46.22 46.22 0 0 1 8.32-2.46l1-.17c.94-.16 0 0-.18 0a11.48 11.48 0 0 1 1.91-.21 35.05 35.05 0 0 1 4.1 0c.58 0 1.17.09 1.75.14 1.32.09-1.08-.21.22 0l.77.13a30.23 30.23 0 0 1 4 1l1.66.58c.25.1 1.41.37.25.09a4.19 4.19 0 0 1 .71.33 27.48 27.48 0 0 1 3.57 2.05c.29.2 1.59 1.23.74.51l1.49 1.29c1 .93 1.85 1.95 2.75 3 .51.59-.7-1 0 .05l.46.63 1.07 1.61a40.57 40.57 0 0 1 2.1 3.76l.83 1.79c.57 1.22-.37-1 .12.27l.44 1.12 1.44 4.19 2.3 9A5 5 0 0 0 80.36 45a5.12 5.12 0 0 0 3.49-6.15c-2.57-12-6.84-24.38-16.94-32.1C57-.87 43.2-1.63 31.66 2.43A70.8 70.8 0 0 0 12 13.69c-2.08 1.61-1.82 5.4 0 7.07 2.2 2 4.86 1.72 7.07 0z"/><path d="M81.13 25.54l-.61 4.7c.07-.53 0-.33 0 .08s-.11.78-.16 1.17L80 33.83q-.66 4.58-1.41 9.12l8.41-2.2a58.5 58.5 0 0 0-23.4-12.83 5 5 0 0 0-2.66 9.64c2 .55 3.87 1.2 5.76 1.94 1.27.5-.94-.43.3.13l1.48.67q1.27.62 2.52 1.29a54.48 54.48 0 0 1 4.83 3l1.31 1c.94.67-.54-.46.28.21l2.47 2.09a5.11 5.11 0 0 0 4.87 1.28 4.89 4.89 0 0 0 3.49-3.49q1.65-10 2.88-20.07c.32-2.6-2.53-5.11-5-5-3 .14-4.66 2.21-5 5z"/></svg>